<svg xmlns="http://www.w3.org/2000/svg" width="560" height="250" viewBox="0 0 560 250" font-family="'PingFang SC','Microsoft YaHei','Helvetica Neue',Arial,sans-serif">
  <defs>
    <marker id="arrow" viewBox="0 0 10 10" refX="9" refY="5" markerWidth="8" markerHeight="8" orient="auto-start-reverse">
      <path d="M 0 0 L 10 5 L 0 10 z" fill="#57606a"/>
    </marker>
  </defs>
  <rect width="560" height="250" fill="#ffffff"/>

  <rect x="20" y="35" width="180" height="180" rx="10" fill="#f6f8fa" stroke="#9aa4af" stroke-dasharray="5 4"/>
  <text x="30" y="57" font-size="13" font-weight="700" fill="#57606a">哨兵集群</text>

  <rect x="55" y="60" width="110" height="44" rx="8" fill="#ffffff" stroke="#c0c8d0"/>
  <text x="110" y="82" text-anchor="middle" font-size="13" fill="#24292f">哨兵1</text>

  <rect x="55" y="108" width="110" height="44" rx="8" fill="#ffffff" stroke="#c0c8d0"/>
  <text x="110" y="130" text-anchor="middle" font-size="13" fill="#24292f">哨兵2</text>

  <rect x="55" y="156" width="110" height="44" rx="8" fill="#ffffff" stroke="#c0c8d0"/>
  <text x="110" y="178" text-anchor="middle" font-size="13" fill="#24292f">哨兵3</text>

  <rect x="390" y="60" width="120" height="44" rx="8" fill="#fff1f0" stroke="#DC382D"/>
  <text x="450" y="82" text-anchor="middle" font-size="13" font-weight="600" fill="#DC382D">主节点</text>

  <rect x="390" y="108" width="120" height="44" rx="8" fill="#ffffff" stroke="#c0c8d0"/>
  <text x="450" y="130" text-anchor="middle" font-size="13" fill="#24292f">从节点1</text>

  <rect x="390" y="156" width="120" height="44" rx="8" fill="#ffffff" stroke="#c0c8d0"/>
  <text x="450" y="178" text-anchor="middle" font-size="13" fill="#24292f">从节点2</text>

  <line x1="165" y1="82" x2="382" y2="82" stroke="#57606a" stroke-width="1.5" marker-end="url(#arrow)"/>
  <text x="273" y="72" text-anchor="middle" font-size="11" fill="#57606a">监控</text>

  <line x1="165" y1="130" x2="382" y2="130" stroke="#57606a" stroke-width="1.5" marker-end="url(#arrow)"/>
  <text x="273" y="120" text-anchor="middle" font-size="11" fill="#57606a">监控</text>

  <line x1="165" y1="178" x2="382" y2="178" stroke="#57606a" stroke-width="1.5" marker-end="url(#arrow)"/>
  <text x="273" y="168" text-anchor="middle" font-size="11" fill="#57606a">监控</text>
</svg>
